<svg width="42" height="42" viewBox="0 0 42 42" fill="none" xmlns="http://www.w3.org/2000/svg">
<path d="M40.0549 20.9927L41.8997 16.1878C42.1047 15.6548 41.9407 15.0563 41.498 14.6955L37.505 11.4566L36.6933 6.37292C36.6031 5.81535 36.1603 5.37258 35.6028 5.28238L30.5193 4.47062L27.2888 0.485639C26.928 0.0428634 26.3213 -0.112928 25.8047 0.0838612L20.9918 1.93696L16.1871 0.0920608C15.6541 -0.112928 15.0556 0.051063 14.703 0.493839L11.4643 4.48702L6.38084 5.29878C5.82329 5.38077 5.38054 5.82355 5.29035 6.38112L4.47863 11.4648L0.485618 14.7037C0.0428615 15.0645 -0.112923 15.663 0.0838575 16.1878L1.92868 20.9927L0.0920567 25.7977C-0.112923 26.3306 0.0510607 26.9292 0.493817 27.2818L4.48682 30.5206L5.29854 35.6043C5.38874 36.1619 5.82329 36.6047 6.38904 36.6949L11.4725 37.5066L14.7112 41.4998C15.072 41.9426 15.6705 42.1066 16.2035 41.9016L21.0082 40.0649L25.8129 41.9098C25.9687 41.9672 26.1245 42 26.2803 42C26.6656 42 27.0428 41.8278 27.297 41.508L30.5357 37.5148L35.6192 36.7031C36.1767 36.6129 36.6195 36.1701 36.7097 35.6125L37.5214 30.5288L41.5144 27.29C41.9571 26.9292 42.1129 26.3306 41.9161 25.8059L40.0549 20.9927Z" fill="#F44336"/>
</svg>
